<?xml version="1.0" standalone="no"?>
<!DOCTYPE svg PUBLIC "-//W3C//DTD SVG 20010904//EN"
 "http://www.w3.org/TR/2001/REC-SVG-20010904/DTD/svg10.dtd">
<svg version="1.0" xmlns="http://www.w3.org/2000/svg"
 width="2034.000000pt" height="2034.000000pt" viewBox="0 0 2034.000000 2034.000000"
 preserveAspectRatio="xMidYMid meet">
<metadata>
Created by potrace 1.15, written by Peter Selinger 2001-2017
</metadata>
<g transform="translate(0.000000,2034.000000) scale(0.100000,-0.100000)"
fill="#000000" stroke="none">
<path d="M9791 20243 c-13 -14 -36 -15 -177 -10 -115 3 -164 2 -167 -6 -2 -7
-49 -14 -118 -18 -63 -4 -170 -15 -239 -24 -234 -30 -275 -36 -325 -41 -27 -3
-57 -8 -65 -11 -8 -3 -37 -8 -65 -10 -27 -2 -72 -8 -100 -14 -53 -12 -150 -26
-225 -35 -25 -3 -54 -9 -65 -14 -11 -5 -36 -11 -55 -14 -19 -3 -60 -10 -90
-15 -30 -6 -89 -17 -130 -25 -41 -8 -93 -20 -115 -26 -22 -7 -57 -14 -77 -17
-21 -3 -38 -9 -38 -14 0 -5 -18 -9 -39 -9 -22 0 -42 -4 -45 -9 -3 -5 -23 -11
-43 -14 -43 -5 -176 -42 -308 -85 -49 -16 -121 -39 -160 -50 -206 -64 -241
-75 -249 -83 -6 -5 -18 -9 -28 -9 -10 0 -26 -4 -36 -9 -9 -5 -57 -21 -107 -36
-49 -16 -109 -36 -132 -47 -24 -10 -45 -18 -48 -18 -3 0 -27 -10 -53 -21 -99
-44 -110 -49 -124 -49 -8 0 -18 -4 -23 -9 -6 -4 -45 -21 -87 -36 -43 -15 -78
-31 -78 -34 0 -4 -17 -13 -37 -20 -35 -11 -83 -32 -125 -52 -10 -5 -23 -9 -29
-9 -16 0 -483 -232 -487 -242 -2 -4 -9 -8 -16 -8 -7 0 -37 -14 -67 -30 -30
-17 -90 -49 -134 -70 -91 -45 -127 -66 -170 -96 -17 -12 -48 -31 -70 -43 -22
-12 -62 -36 -90 -52 -27 -16 -62 -35 -78 -42 -15 -6 -27 -15 -27 -19 0 -4 -8
-8 -18 -8 -10 0 -24 -9 -32 -20 -8 -11 -19 -20 -24 -20 -9 0 -192 -116 -206
-130 -8 -8 -43 -29 -65 -39 -11 -5 -31 -21 -44 -35 -14 -14 -28 -26 -33 -26
-12 0 -111 -66 -185 -122 -34 -27 -66 -48 -71 -48 -5 0 -19 -11 -32 -25 -13
-14 -27 -25 -32 -25 -5 0 -21 -13 -35 -30 -13 -16 -29 -30 -34 -30 -12 0 -107
-67 -143 -102 -17 -15 -33 -28 -37 -28 -7 0 -161 -128 -288 -238 -29 -26 -65
-55 -80 -64 -14 -10 -37 -30 -51 -45 -14 -16 -45 -44 -70 -65 -25 -20 -81 -70
-124 -112 -44 -42 -83 -76 -88 -76 -4 0 -8 -5 -8 -11 0 -13 -13 -26 -65 -64
-22 -17 -44 -36 -49 -44 -10 -17 -75 -81 -102 -101 -11 -8 -33 -33 -50 -55
-16 -22 -36 -46 -45 -52 -37 -28 -313 -326 -346 -374 -10 -13 -35 -43 -56 -66
-22 -23 -47 -53 -55 -65 -9 -13 -23 -30 -31 -38 -47 -45 -160 -182 -223 -270
-17 -25 -35 -46 -40 -48 -4 -2 -8 -9 -8 -16 0 -7 -16 -27 -35 -46 -19 -19 -35
-38 -35 -43 0 -5 -12 -24 -27 -42 -52 -60 -63 -75 -63 -84 0 -5 -7 -14 -15
-21 -19 -15 -95 -129 -95 -141 0 -5 -4 -9 -10 -9 -5 0 -10 -9 -10 -19 0 -10
-6 -21 -14 -24 -7 -3 -34 -36 -59 -74 -24 -37 -75 -115 -113 -173 -38 -58 -72
-106 -76 -108 -5 -2 -8 -12 -8 -23 0 -10 -4 -19 -8 -19 -4 0 -13 -12 -19 -27
-17 -38 -61 -112 -149 -249 -19 -28 -57 -98 -87 -155 -29 -57 -58 -113 -64
-124 -6 -11 -17 -33 -24 -50 -8 -16 -22 -39 -32 -49 -9 -11 -17 -27 -18 -35 0
-9 -9 -29 -19 -46 -22 -36 -151 -294 -174 -347 -9 -21 -23 -54 -31 -73 -8 -19
-21 -50 -29 -67 -7 -18 -24 -55 -36 -83 -38 -87 -47 -108 -75 -180 -14 -38
-40 -101 -57 -140 -51 -115 -56 -128 -69 -175 -7 -25 -16 -49 -21 -54 -4 -6
-8 -21 -8 -34 0 -16 -4 -22 -13 -19 -10 4 -13 -2 -9 -20 2 -13 0 -34 -6 -46
-17 -35 -62 -172 -62 -190 0 -9 -4 -17 -10 -17 -5 0 -10 -11 -10 -25 0 -14 -4
-33 -9 -43 -5 -9 -17 -44 -26 -77 -9 -33 -21 -71 -26 -84 -5 -12 -18 -53 -29
-90 -11 -36 -29 -97 -41 -136 -22 -75 -37 -137 -46 -197 -3 -21 -9 -38 -13
-38 -4 0 -10 -17 -13 -37 -2 -21 -14 -75 -26 -121 -11 -46 -21 -96 -21 -112 0
-16 -4 -32 -10 -35 -5 -3 -10 -25 -10 -49 0 -23 -4 -46 -9 -51 -5 -6 -11 -28
-15 -50 -17 -124 -26 -178 -41 -255 -9 -47 -18 -114 -21 -150 -3 -36 -9 -74
-14 -85 -5 -11 -11 -45 -15 -75 -3 -30 -10 -84 -15 -120 -4 -36 -14 -117 -20
-180 -8 -77 -18 -121 -29 -134 -12 -14 -13 -20 -4 -23 13 -5 12 -48 -8 -247
-5 -54 -9 -143 -9 -197 0 -59 -4 -99 -10 -99 -13 0 -14 -762 -1 -775 5 -6 12
-82 15 -170 3 -88 9 -203 14 -255 6 -66 6 -100 -2 -113 -8 -13 -8 -20 3 -26
10 -6 19 -46 27 -123 13 -115 26 -220 44 -340 5 -38 14 -96 19 -130 22 -152
33 -215 42 -244 5 -17 9 -49 9 -72 0 -22 5 -44 10 -47 6 -3 10 -25 10 -49 0
-23 4 -46 9 -51 5 -6 11 -30 14 -55 8 -66 25 -152 43 -218 9 -31 19 -74 21
-94 3 -21 9 -38 14 -38 5 0 9 -12 9 -27 0 -15 4 -40 9 -57 5 -17 15 -56 22
-86 6 -30 34 -125 61 -210 27 -85 58 -186 70 -225 11 -38 24 -79 29 -90 4 -11
19 -56 34 -100 14 -44 30 -88 35 -97 6 -10 10 -27 10 -37 0 -11 5 -23 10 -26
6 -3 10 -17 10 -31 0 -13 5 -24 10 -24 6 0 10 -9 10 -19 0 -21 40 -139 70
-206 37 -83 90 -211 90 -218 0 -4 13 -36 29 -70 16 -34 39 -84 51 -112 12 -27
28 -63 36 -79 8 -16 14 -33 14 -37 0 -13 74 -164 82 -167 5 -2 8 -8 8 -13 0
-9 37 -86 102 -214 22 -43 25 -49 77 -145 19 -36 52 -101 74 -145 22 -44 61
-114 87 -155 57 -90 141 -232 155 -260 5 -11 13 -20 17 -20 5 0 8 -9 8 -20 0
-11 4 -20 8 -20 4 0 26 -30 47 -67 22 -38 43 -72 48 -78 5 -5 36 -52 70 -102
142 -212 197 -292 212 -306 8 -9 15 -18 15 -22 0 -3 4 -11 10 -18 5 -7 30 -39
55 -72 71 -95 143 -189 154 -201 5 -6 27 -34 48 -61 77 -101 98 -126 125 -155
15 -16 42 -48 60 -70 18 -23 50 -59 71 -79 20 -21 37 -41 37 -44 0 -7 16 -27
60 -73 19 -20 48 -52 63 -71 16 -20 87 -97 158 -171 125 -130 148 -153 221
-225 18 -18 38 -39 45 -46 6 -8 51 -50 99 -94 48 -44 115 -107 149 -141 34
-33 72 -68 84 -76 12 -9 48 -40 79 -70 31 -29 75 -66 97 -83 22 -16 51 -41 65
-55 14 -15 41 -38 60 -52 19 -15 49 -39 66 -55 17 -15 55 -46 84 -68 57 -43
114 -88 172 -135 20 -17 41 -30 45 -30 5 0 29 -18 53 -40 24 -22 52 -43 62
-46 10 -3 18 -10 18 -15 0 -5 5 -9 11 -9 6 0 26 -12 44 -27 18 -16 50 -39 70
-53 20 -14 42 -31 50 -37 7 -7 18 -13 23 -13 5 0 15 -7 22 -16 8 -8 27 -21 44
-29 17 -7 42 -24 56 -37 14 -13 48 -37 75 -53 28 -16 71 -44 97 -62 26 -18 52
-33 58 -33 5 0 10 -3 10 -8 0 -4 15 -14 32 -21 18 -8 40 -22 48 -31 8 -9 30
-22 47 -29 18 -7 41 -21 52 -30 11 -9 57 -36 101 -61 45 -25 103 -59 128 -76
26 -16 99 -57 162 -89 63 -32 162 -83 220 -112 58 -30 112 -58 120 -63 22 -15
348 -170 356 -170 8 0 144 -60 230 -101 34 -16 65 -29 70 -29 13 0 132 -47
224 -88 25 -11 77 -30 115 -42 39 -12 79 -25 90 -30 11 -5 56 -21 100 -35 44
-14 89 -30 100 -35 26 -11 116 -41 230 -75 50 -15 137 -42 195 -60 101 -31
142 -43 233 -66 23 -6 56 -15 73 -20 17 -5 45 -9 62 -9 18 0 32 -4 32 -10 0
-5 10 -10 23 -10 24 0 150 -28 182 -41 11 -4 36 -10 55 -13 19 -3 59 -10 88
-16 108 -21 150 -29 242 -44 52 -8 129 -22 170 -30 41 -8 129 -22 195 -31 66
-9 136 -20 156 -26 20 -5 61 -9 92 -9 43 0 58 -4 66 -18 7 -13 14 -14 26 -7
20 12 163 4 173 -10 4 -6 49 -10 102 -10 52 0 189 -6 305 -12 252 -16 843 -16
1125 -1 113 6 248 11 300 11 70 0 98 4 109 15 12 12 33 14 102 9 68 -4 89 -3
93 8 3 9 29 15 73 18 108 8 298 35 458 67 28 5 93 17 145 26 52 9 118 20 145
25 28 6 66 12 85 15 19 3 44 9 55 14 11 5 36 11 55 13 19 3 64 13 100 22 36 9
82 19 103 22 20 3 40 9 43 14 3 5 23 9 44 9 21 0 42 5 45 10 3 6 17 10 30 10
13 0 34 4 47 9 13 5 48 14 78 21 30 7 105 28 165 47 61 19 142 43 180 55 117
35 147 45 235 78 47 18 99 36 115 40 50 14 230 77 271 95 50 22 62 26 164 65
79 29 115 44 303 129 37 17 70 31 72 31 3 0 40 16 82 36 43 20 84 37 91 37 6
0 12 3 12 7 0 3 35 21 78 40 42 18 84 39 92 46 8 6 38 23 65 36 149 73 431
221 440 231 6 7 33 23 60 37 28 13 64 35 81 47 17 13 34 23 38 23 3 0 29 16
57 35 28 19 57 35 65 35 8 0 14 4 14 8 0 5 12 15 28 23 15 7 71 42 125 76 54
35 100 63 103 63 3 0 31 19 62 42 31 24 95 68 142 100 111 75 131 89 154 110
11 10 23 18 27 18 4 0 37 24 73 53 36 28 84 66 107 82 23 17 59 44 79 60 21
17 50 39 65 50 16 11 33 25 39 31 6 6 18 15 27 20 16 9 156 129 245 209 6 6
23 19 39 30 15 11 44 36 64 55 20 20 46 43 58 51 57 39 426 400 625 610 165
175 219 236 436 493 24 28 53 62 65 76 12 14 35 44 51 65 17 22 33 42 36 45 3
3 19 23 35 45 17 22 32 42 35 45 3 3 18 23 35 45 16 22 31 42 34 45 13 12 71
89 71 95 0 6 50 76 61 85 5 4 56 79 92 134 7 10 22 31 34 45 24 30 243 368
243 376 0 2 28 49 63 103 34 53 71 115 82 137 25 50 46 75 57 69 4 -3 5 2 2
11 -4 8 -1 22 6 30 11 13 53 93 138 260 20 39 38 72 41 75 11 10 151 295 151
308 0 6 5 12 10 12 6 0 10 9 10 19 0 11 4 21 8 23 5 2 23 39 41 83 50 121 61
146 85 195 13 25 44 99 70 165 26 66 51 128 57 137 5 10 9 25 9 34 0 9 6 14
13 11 8 -3 13 4 12 22 0 15 5 25 12 24 7 -2 10 3 7 11 -5 13 38 164 56 198 6
10 10 25 10 33 0 8 5 24 10 35 21 42 27 58 64 175 22 66 42 129 47 140 4 11
19 61 34 110 14 50 30 99 35 110 5 11 11 29 13 40 2 11 8 19 13 18 5 -1 8 13
6 31 -2 19 2 39 10 47 7 8 14 36 16 63 2 28 8 58 13 67 5 10 9 33 9 53 0 19 5
38 10 41 6 3 10 22 10 42 0 24 4 34 13 30 8 -3 12 7 13 32 1 20 9 70 19 111 9
41 21 98 26 125 25 124 30 153 39 205 5 30 16 89 24 130 67 341 122 812 132
1140 2 85 9 164 14 175 22 43 1 956 -29 1290 -6 61 -14 155 -19 210 -10 102
-19 170 -47 355 -26 164 -33 209 -50 300 -9 47 -19 105 -21 130 -3 25 -9 54
-14 65 -5 11 -11 36 -14 55 -7 48 -23 131 -42 220 -9 41 -17 92 -18 112 0 20
-5 36 -11 35 -5 -1 -11 9 -13 23 -1 14 -7 34 -12 45 -5 11 -11 36 -13 55 -3
19 -10 55 -17 80 -6 24 -9 53 -6 62 2 10 0 16 -4 13 -5 -3 -11 9 -15 27 -4 18
-24 85 -45 148 -20 63 -49 156 -64 205 -15 50 -31 99 -35 110 -5 11 -16 43
-24 70 -16 50 -34 103 -48 140 -57 152 -92 259 -93 286 -1 17 -6 25 -13 22 -7
-3 -13 2 -13 11 0 9 -4 24 -9 34 -6 9 -32 73 -60 142 -27 69 -60 146 -72 170
-12 25 -26 54 -30 65 -5 11 -24 56 -42 100 -52 125 -61 145 -69 145 -5 0 -8 9
-8 20 0 11 -4 20 -10 20 -5 0 -10 5 -10 11 0 13 -69 162 -79 169 -3 3 -14 23
-25 45 -10 22 -23 49 -29 60 -38 68 -92 170 -125 235 -22 41 -48 91 -59 110
-46 78 -93 156 -100 165 -18 22 -83 137 -83 146 0 5 -4 9 -10 9 -5 0 -10 4
-10 9 0 13 -173 283 -226 354 -24 31 -44 60 -44 63 0 6 -40 63 -57 82 -7 7
-13 17 -13 21 0 4 -8 16 -18 27 -10 10 -39 49 -65 86 -43 63 -54 77 -99 130
-10 12 -18 24 -18 28 0 3 -8 15 -18 26 -10 10 -31 37 -47 59 -16 22 -37 47
-45 55 -9 8 -26 32 -39 52 -12 21 -28 41 -35 45 -7 5 -19 17 -27 29 -8 12 -34
44 -59 72 -25 28 -74 86 -110 128 -122 145 -407 453 -483 524 -21 19 -51 48
-65 64 -35 37 -58 59 -305 291 -101 94 -189 173 -218 193 -13 9 -43 34 -66 55
-23 22 -53 47 -65 55 -13 9 -43 34 -68 56 -57 51 -136 116 -166 136 -37 25
-230 172 -272 208 -15 12 -35 25 -44 28 -10 3 -18 9 -18 14 0 5 -9 12 -20 15
-11 3 -26 12 -32 19 -23 21 -148 106 -158 106 -5 0 -17 8 -27 19 -25 25 -177
128 -202 136 -12 3 -21 11 -21 16 0 5 -7 9 -15 9 -8 0 -15 3 -15 8 0 4 -25 20
-55 37 -30 16 -55 33 -55 37 0 4 -9 8 -20 8 -11 0 -20 4 -20 9 0 5 -8 11 -17
15 -10 3 -47 24 -83 47 -36 22 -87 52 -114 66 -27 13 -57 32 -67 42 -11 10
-54 34 -96 55 -43 20 -87 42 -98 49 -19 10 -167 88 -203 106 -9 5 -35 18 -57
29 -185 95 -329 163 -459 216 -49 21 -122 53 -161 72 -40 18 -78 34 -83 34 -6
0 -40 14 -77 30 -37 17 -71 30 -76 30 -5 0 -38 13 -74 30 -36 16 -102 41 -147
56 -46 14 -91 30 -100 35 -10 5 -27 9 -37 9 -11 0 -23 5 -26 10 -3 6 -15 10
-26 10 -10 0 -27 4 -37 10 -20 11 -168 60 -257 85 -55 16 -110 32 -270 83 -33
11 -91 27 -130 36 -38 10 -84 21 -101 27 -17 5 -45 9 -62 9 -18 0 -32 5 -32
10 0 6 -15 10 -34 10 -19 0 -38 5 -41 10 -3 6 -17 10 -31 10 -14 0 -33 4 -43
9 -16 9 -105 26 -196 37 -22 3 -49 9 -60 14 -11 5 -38 11 -60 15 -58 8 -172
27 -300 50 -44 7 -118 19 -165 25 -82 11 -119 16 -280 41 -41 7 -111 14 -155
16 -43 3 -87 9 -96 14 -10 5 -62 9 -116 9 -68 0 -105 4 -118 14 -14 10 -52 12
-175 8 -133 -4 -163 -2 -190 12 -29 14 -78 16 -384 16 -309 -1 -353 -3 -365
-17z m3669 -4055 c36 -10 79 -20 95 -23 31 -7 176 -74 185 -86 3 -3 19 -13 35
-22 17 -8 41 -25 55 -37 14 -12 40 -34 58 -48 70 -56 232 -298 232 -347 0 -8
4 -23 9 -33 5 -9 20 -48 32 -87 l23 -70 4 -972 c2 -694 0 -978 -8 -992 -11
-21 -12 -21 -920 -21 l-909 0 -15 22 c-14 19 -16 79 -16 450 0 298 -3 429 -11
434 -13 8 -4526 16 -4551 8 -18 -5 -25 -40 -10 -46 5 -1 20 -19 33 -39 39 -59
142 -203 157 -218 7 -7 32 -40 55 -73 23 -33 51 -73 62 -88 11 -15 42 -59 70
-96 27 -38 52 -71 55 -74 3 -3 28 -36 55 -75 27 -38 51 -72 55 -75 3 -3 23
-30 45 -60 22 -30 45 -59 52 -63 7 -4 22 -25 33 -47 11 -21 23 -40 27 -42 7
-2 84 -112 128 -179 30 -47 88 -119 96 -119 5 0 9 -5 9 -11 0 -10 60 -99 85
-125 5 -6 21 -27 35 -47 14 -20 28 -37 33 -37 4 0 7 -6 7 -12 0 -7 20 -39 45
-70 25 -32 45 -62 45 -67 0 -5 4 -11 8 -13 5 -2 26 -28 49 -58 22 -30 47 -61
56 -69 10 -7 17 -20 17 -27 0 -8 4 -14 8 -14 4 0 16 -15 27 -32 10 -18 21 -35
25 -38 3 -3 17 -21 30 -40 49 -72 225 -306 247 -329 13 -13 23 -29 23 -37 0
-7 3 -14 8 -16 4 -2 23 -28 42 -58 19 -30 51 -73 70 -97 46 -54 100 -128 100
-136 0 -3 12 -19 28 -35 15 -16 49 -60 75 -99 27 -39 55 -79 63 -89 33 -44
153 -209 204 -280 30 -42 60 -82 65 -88 6 -6 33 -42 60 -81 28 -38 57 -77 65
-87 8 -9 33 -42 55 -74 22 -31 49 -67 60 -79 30 -33 121 -218 152 -310 26 -76
28 -90 28 -256 0 -115 -4 -184 -12 -200 -6 -13 -17 -42 -23 -64 -7 -22 -37
-87 -66 -144 -30 -58 -54 -111 -54 -118 0 -7 -4 -13 -9 -13 -5 0 -19 -17 -32
-37 -12 -21 -27 -42 -33 -48 -6 -5 -29 -35 -51 -65 -22 -30 -42 -57 -45 -60
-3 -3 -23 -30 -45 -60 -22 -30 -43 -56 -47 -58 -5 -2 -8 -8 -8 -13 0 -6 -11
-22 -25 -37 -14 -15 -25 -30 -25 -35 0 -4 -21 -36 -48 -70 -26 -34 -55 -73
-65 -87 -9 -14 -32 -44 -50 -67 -17 -23 -59 -79 -92 -125 -33 -46 -68 -93 -78
-104 -10 -12 -33 -42 -50 -67 -18 -25 -45 -65 -62 -89 -16 -23 -42 -56 -57
-72 -16 -16 -28 -32 -28 -37 0 -4 -6 -14 -13 -21 -7 -7 -23 -30 -35 -51 -12
-22 -36 -55 -52 -75 -37 -46 -151 -199 -165 -221 -13 -20 -77 -104 -86 -111
-3 -3 -22 -30 -42 -60 -20 -30 -46 -65 -58 -78 -11 -13 -26 -33 -32 -45 -7
-12 -39 -57 -72 -101 -33 -43 -64 -86 -70 -95 -5 -9 -13 -18 -16 -21 -3 -3
-27 -36 -54 -75 -28 -38 -60 -81 -72 -95 -13 -14 -23 -30 -23 -36 0 -6 -10
-19 -21 -30 -12 -10 -32 -35 -45 -54 -32 -47 -90 -130 -111 -159 -10 -13 -27
-36 -38 -51 -11 -15 -55 -74 -97 -131 -43 -57 -106 -142 -140 -189 -35 -47
-73 -96 -84 -109 -12 -13 -28 -35 -35 -50 -7 -14 -24 -38 -37 -53 -14 -16 -22
-33 -19 -42 6 -14 257 -16 2576 -16 1413 0 2576 3 2585 6 14 6 16 75 16 679 0
604 2 673 16 679 27 10 1818 7 1834 -4 13 -8 15 -176 12 -1427 -3 -1492 -1
-1415 -44 -1578 -16 -60 -48 -136 -74 -175 -13 -19 -24 -38 -24 -43 0 -27
-173 -208 -248 -259 -60 -41 -184 -106 -235 -122 -48 -15 -138 -33 -212 -41
-73 -7 -8356 -8 -8445 0 -94 8 -196 24 -235 38 -59 20 -197 91 -251 128 -30
22 -57 39 -60 39 -3 0 -18 13 -32 28 -15 16 -34 33 -42 38 -52 31 -148 188
-219 358 -22 54 -41 181 -41 281 0 123 24 241 69 340 43 93 66 141 72 145 3 3
18 23 32 45 45 67 125 178 159 219 34 41 42 51 93 127 17 25 63 88 103 141 39
53 72 101 72 106 0 5 7 12 15 15 8 4 25 24 39 45 13 21 31 45 38 53 8 8 23 28
34 44 26 41 81 116 103 140 10 11 44 61 77 110 32 50 61 92 65 95 5 4 46 58
177 235 55 75 67 90 74 93 4 2 8 9 8 16 0 7 15 30 33 52 18 21 44 55 57 74 14
19 35 46 47 60 13 14 23 30 23 37 0 7 3 13 8 13 4 0 23 24 42 53 19 28 38 54
41 57 3 3 25 32 50 64 24 33 56 75 72 95 15 20 35 49 45 65 15 25 43 62 98
129 8 9 14 19 14 22 0 6 72 108 81 115 3 3 19 25 34 50 16 25 35 52 44 60 9 8
34 40 56 70 22 30 43 57 47 58 5 2 8 9 8 17 0 7 7 18 15 25 9 7 46 56 82 109
37 53 74 101 84 108 9 7 22 26 29 43 7 16 15 30 19 30 4 0 15 15 26 32 10 18
24 38 29 44 6 6 22 27 36 47 14 20 28 37 33 37 4 0 7 5 7 11 0 6 12 25 26 43
52 63 114 150 114 158 0 5 13 21 29 37 16 15 34 39 41 52 7 13 22 33 33 45 11
12 30 37 41 56 12 20 33 51 47 69 76 100 145 193 154 208 6 9 12 18 15 21 3 3
18 23 35 45 35 48 38 52 68 90 13 17 54 73 90 126 37 53 73 102 82 109 8 7 15
17 15 23 0 5 15 26 33 47 17 20 50 63 72 95 22 31 46 63 53 71 6 7 12 17 12
23 0 6 4 11 9 11 5 0 23 23 40 50 17 28 38 53 46 56 18 7 20 50 3 69 -16 16
-36 40 -73 90 -16 22 -35 46 -42 53 -7 7 -13 17 -13 21 0 4 -9 19 -21 32 -11
13 -50 65 -85 114 -35 50 -85 117 -109 150 -25 33 -62 84 -82 113 -20 28 -40
52 -44 52 -5 0 -9 6 -9 13 0 6 -14 28 -30 47 -16 19 -30 38 -30 42 0 4 -6 13
-12 20 -17 18 -71 88 -83 109 -5 9 -23 33 -40 54 -16 20 -41 51 -55 68 -14 18
-42 57 -62 87 -21 30 -51 73 -68 95 -16 22 -38 53 -48 69 -9 17 -27 40 -39 53
-13 13 -23 27 -23 30 0 3 -19 29 -43 57 -24 28 -86 112 -138 186 -51 74 -104
145 -116 158 -13 13 -23 27 -23 32 0 6 -8 18 -19 29 -10 10 -37 45 -59 77 -22
33 -48 69 -58 80 -27 31 -115 151 -139 188 -11 18 -45 65 -75 106 -30 40 -59
80 -65 89 -5 9 -17 23 -25 31 -26 25 -90 117 -90 128 0 6 -4 12 -9 14 -4 2
-20 22 -35 46 -14 23 -31 42 -36 42 -6 0 -10 6 -10 13 0 7 -13 28 -29 47 -46
55 -189 248 -202 272 -7 13 -15 25 -19 28 -3 3 -26 32 -50 65 -24 33 -52 69
-62 79 -10 11 -18 25 -18 31 0 6 -15 27 -32 47 -37 41 -38 43 -88 111 -19 27
-47 63 -61 80 -14 18 -53 73 -86 122 -33 50 -68 97 -77 104 -9 7 -16 19 -16
25 0 7 -16 27 -35 46 -19 19 -35 39 -35 45 0 7 -12 25 -28 41 -15 16 -38 47
-52 69 -13 22 -29 45 -36 50 -6 6 -33 42 -60 80 -26 39 -66 93 -89 122 -22 28
-56 74 -75 103 -19 28 -45 62 -57 75 -13 13 -23 28 -23 33 0 5 -13 24 -30 42
-16 18 -30 37 -30 41 0 4 -6 14 -13 21 -7 7 -30 38 -50 68 -20 30 -45 66 -55
80 -27 36 -92 177 -92 200 0 10 -4 21 -8 24 -22 13 -45 288 -31 361 5 28 12
69 15 93 4 23 11 45 15 48 5 3 9 13 9 23 0 24 73 173 93 190 10 7 17 20 17 28
0 23 167 213 188 213 4 0 24 16 44 34 21 19 77 54 125 79 85 43 126 58 223 80
62 14 1844 22 5060 22 2461 0 2660 -2 2720 -17z"/>
</g>
</svg>
